<svg xmlns="http://www.w3.org/2000/svg" viewBox="0 0 192 192" role="img" aria-label="AlphaOS Fire">
  <rect width="192" height="192" rx="36" fill="#0b0c0f"/>
  <defs>
    <linearGradient id="flame" x1="0" x2="0" y1="0" y2="1">
      <stop offset="0%" stop-color="#ffb347"/>
      <stop offset="55%" stop-color="#ff6a00"/>
      <stop offset="100%" stop-color="#ff2d2d"/>
    </linearGradient>
  </defs>
  <path d="M96 28c-6 18-24 30-31 52-6 18-1 34 7 45 6 8 12 12 24 15-7-10-7-21-4-30 6-15 22-18 32-33 9-13 8-30-28-49z" fill="url(#flame)"/>
  <path d="M96 92c-8 8-16 16-16 30 0 13 11 26 26 26s26-13 26-26c0-13-10-23-16-30-4 10-10 18-20 18s-16-8-20-18z" fill="#ffd08a"/>
</svg>
