<svg xmlns="http://www.w3.org/2000/svg" viewBox="0 0 512 512" role="img" aria-label="αOS Fire">
  <rect width="512" height="512" rx="96" fill="#0b0c0f"/>
  <defs>
    <linearGradient id="flame" x1="0" x2="0" y1="0" y2="1">
      <stop offset="0%" stop-color="#ffd08a"/>
      <stop offset="55%" stop-color="#ff7a1a"/>
      <stop offset="100%" stop-color="#ff2d2d"/>
    </linearGradient>
  </defs>
  <circle cx="256" cy="256" r="156" fill="none" stroke="#1f2937" stroke-width="18"/>
  <path d="M256 80c-22 56-72 96-94 162-20 56-6 108 20 142 20 26 38 40 72 50-22-34-22-70-10-100 20-50 72-62 104-106 30-42 28-94-92-148z" fill="url(#flame)"/>
  <path d="M256 260c-26 26-52 52-52 98 0 44 40 84 96 84s96-40 96-84c0-44-38-76-52-98-14 34-38 60-72 60s-58-26-72-60z" fill="#ffe1b3"/>
</svg>
